<?xml version="1.0" standalone="no"?>
<!DOCTYPE svg PUBLIC "-//W3C//DTD SVG 20010904//EN"
 "http://www.w3.org/TR/2001/REC-SVG-20010904/DTD/svg10.dtd">
<svg version="1.0" xmlns="http://www.w3.org/2000/svg"
 width="175.000000pt" height="175.000000pt" viewBox="0 0 175.000000 175.000000"
 preserveAspectRatio="xMidYMid meet">

<g transform="translate(0.000000,175.000000) scale(0.100000,-0.100000)"
fill="#000000" stroke="none">
<path d="M1185 1540 l-171 -170 -377 0 -376 0 -3 133 c-3 129 -4 132 -26 135
-59 9 -143 -45 -173 -113 -17 -37 -19 -78 -19 -598 0 -446 3 -564 14 -590 17
-43 76 -93 123 -106 23 -7 182 -11 413 -11 l374 0 -67 -68 c-42 -43 -67 -76
-67 -90 l0 -22 438 2 437 3 3 438 c3 493 4 483 -67 413 -20 -20 -40 -36 -44
-36 -4 0 -7 115 -7 255 l0 255 -95 0 c-52 0 -95 3 -95 7 0 3 32 39 70 79 43
44 70 80 70 93 0 35 -26 76 -76 120 -78 69 -81 68 -279 -129z m269 59 l38 -41
-31 -32 -31 -31 -52 52 -52 52 28 30 c34 35 44 32 100 -30z m-1242 -396 c3
-370 3 -378 23 -378 19 0 20 8 23 248 l2 247 345 0 c190 0 345 -4 345 -8 0 -4
-27 -34 -60 -67 -60 -60 -74 -90 -44 -102 11 -4 65 44 188 166 l171 171 53
-53 52 -52 -250 -250 -250 -250 -52 52 -53 53 48 48 c49 50 62 92 29 92 -10 0
-45 -28 -79 -62 -58 -58 -65 -72 -104 -180 l-41 -117 -52 -3 c-43 -3 -51 -6
-51 -23 0 -20 8 -20 363 -23 l363 -2 -3 22 c-3 23 -3 23 -238 28 l-235 5 60
22 c55 21 79 42 315 278 l255 255 102 0 103 0 0 -263 0 -262 -175 -175 c-97
-96 -175 -183 -175 -193 0 -53 35 -27 251 189 l219 219 0 -102 0 -102 -32 -3
c-25 -2 -34 -8 -36 -25 -3 -18 2 -22 30 -25 30 -3 33 -6 33 -38 0 -32 -3 -35
-33 -38 -28 -3 -33 -7 -30 -25 2 -17 11 -23 36 -25 29 -3 32 -6 32 -38 0 -32
-2 -34 -36 -34 -31 0 -35 -3 -32 -22 2 -18 11 -24 36 -26 29 -3 32 -6 32 -37
0 -31 -3 -34 -32 -37 -25 -2 -34 -8 -36 -25 -3 -18 2 -22 30 -25 33 -3 33 -3
36 -61 l3 -57 -373 0 -372 0 128 129 c70 72 126 136 124 143 -10 29 -44 18
-93 -32 l-49 -50 -419 0 c-405 0 -421 1 -453 20 -45 29 -71 95 -54 144 12 36
55 81 87 89 10 3 30 8 46 11 l27 6 0 110 0 110 -25 0 c-25 0 -25 -1 -25 -85 0
-73 -3 -86 -17 -91 -10 -3 -35 -14 -55 -24 -20 -11 -39 -20 -42 -20 -4 0 -6
205 -6 455 0 499 0 498 59 548 63 52 60 65 63 -350z m1158 233 l-20 -21 -52
52 c-51 52 -52 52 -33 73 l19 21 53 -53 53 -52 -20 -20z m-647 -554 l37 -38
-29 -11 c-26 -9 -32 -8 -52 13 -15 17 -20 30 -15 48 3 15 10 26 14 26 4 0 25
-17 45 -38z"/>
<path d="M1347 392 c-75 -76 -137 -143 -137 -149 0 -28 31 -34 171 -31 l144 3
3 158 3 157 -24 0 c-16 0 -62 -40 -160 -138z m133 -42 l0 -80 -87 0 -88 0 80
80 c44 44 83 80 87 80 5 0 8 -36 8 -80z"/>
</g>
</svg>
